<?xml version="1.0" encoding="iso-8859-1"?>
<!-- Generator: Adobe Illustrator 19.0.0, SVG Export Plug-In . SVG Version: 6.00 Build 0)  -->
<svg version="1.1" id="Layer_1" xmlns="http://www.w3.org/2000/svg" xmlns:xlink="http://www.w3.org/1999/xlink" x="0px" y="0px"
	 viewBox="0 0 330 330" style="enable-background:new 0 0 330 330;" xml:space="preserve">
<path id="XMLID_338_" d="M325.607,84.394l-80-80c-5.857-5.858-15.355-5.858-21.213,0l-220,220C1.581,227.207,0,231.022,0,235v80
	c0,8.284,6.716,15,15,15h80c3.978,0,7.793-1.581,10.606-4.394l220-220C331.465,99.749,331.465,90.252,325.607,84.394z M88.787,300
	H30v-58.787l135-135L223.787,165L88.787,300z M245,143.787L186.213,85L235,36.214L293.787,95L245,143.787z"/>
<g>
</g>
<g>
</g>
<g>
</g>
<g>
</g>
<g>
</g>
<g>
</g>
<g>
</g>
<g>
</g>
<g>
</g>
<g>
</g>
<g>
</g>
<g>
</g>
<g>
</g>
<g>
</g>
<g>
</g>
</svg>
