<?xml version="1.0" encoding="utf-8"?>
<!-- Svg Vector Icons : http://www.onlinewebfonts.com/icon -->
<!DOCTYPE svg PUBLIC "-//W3C//DTD SVG 1.1//EN" "http://www.w3.org/Graphics/SVG/1.1/DTD/svg11.dtd">
<svg version="1.1" xmlns="http://www.w3.org/2000/svg" xmlns:xlink="http://www.w3.org/1999/xlink" x="0px" y="0px" viewBox="0 0 1000 1000" enable-background="new 0 0 1000 1000" xml:space="preserve">
<metadata> Svg Vector Icons : http://www.onlinewebfonts.com/icon </metadata>
<g><path d="M480.2,513.2L480.2,513.2c-22.5,0-40.8-13.9-40.8-31.1v-441c0-17.2,18.3-31.1,40.8-31.1l0,0c22.5,0,40.8,13.9,40.8,31.1v441C521,499.3,502.8,513.2,480.2,513.2z"/><path d="M784.5,794c0,147.8-177.9,196-284.5,196s-284.5-52-284.5-199.8c0-109.3,163-307.2,269.5-307.2C591.6,483,784.5,646.2,784.5,794z M486.9,524.8c-93.5,0-236.4,173.6-236.4,269.5c0,129.7,156.1,175.2,249.6,175.2s249.6-42.3,249.6-171.9C749.6,667.9,580.4,524.8,486.9,524.8z"/><path d="M517,513.2h-63.7c-27.5,0-49.8-17-49.8-37.9V274.1c0-20.9,22.3-37.9,49.8-37.9H517c27.5,0,49.8,17,49.8,37.9v201.2C566.8,496.2,544.5,513.2,517,513.2z"/></g>
</svg>